<svg xmlns="http://www.w3.org/2000/svg" viewBox="0 0 505 505"><defs><style>.a{fill:none;}.b{opacity:0.5;}.c,.d{fill:#fff;}.c,.d,.e{stroke:#000;stroke-miterlimit:10;stroke-width:4px;}.d{opacity:0.78;}</style></defs><title>file</title><rect class="a" width="505" height="505"/><g class="b"><path class="c" d="M84.5,489.08c-5.52,0-10-5.27-10-11.78V29.88c0-6.51,4.48-11.78,10-11.78h257c5.52,0,10,5.27,10,11.78v74.18h67c5.52,0,10,5.27,10,11.77V477.3c0,6.51-4.48,11.78-10,11.78Z"/><polygon class="c" points="84.5 489.08 74.5 477.3 74.5 29.88 84.5 18.1 341.5 18.1 351.5 29.88 351.5 104.06 418.5 104.06 428.5 115.83 428.5 477.3 418.5 489.08 84.5 489.08"/><polygon class="d" points="84.5 29.88 84.5 477.3 418.5 477.3 418.5 115.83 341.5 115.83 341.5 29.88 84.5 29.88"/><path class="e" d="M340,127.6c-5.52,0-10-5.27-10-11.77V29.88c0-4.69,2.36-8.93,6-10.8a8.68,8.68,0,0,1,4-1,9.25,9.25,0,0,1,6.81,3.15l78.5,86a13.28,13.28,0,0,1,2.5,12.93c-1.51,4.5-5.2,7.46-9.31,7.46Z"/><polygon class="e" points="340 29.88 340 115.83 418.5 115.83 340 29.88"/></g></svg>